<mxfile host="app.diagrams.net" modified="2021-09-07T02:16:00.576Z" agent="5.0 (Windows NT 10.0; Win64; x64) AppleWebKit/537.36 (KHTML, like Gecko) Chrome/93.0.4577.63 Safari/537.36 Edg/93.0.961.38" etag="yqBUy7TFQLHkGh-4-sOi" version="14.9.2" type="github">
  <diagram id="Yl6dV2IaEoDvSQR5ONot" name="第 1 页">
    <mxGraphModel dx="2249" dy="833" grid="1" gridSize="10" guides="1" tooltips="1" connect="1" arrows="1" fold="1" page="1" pageScale="1" pageWidth="827" pageHeight="1169" math="0" shadow="0">
      <root>
        <mxCell id="0" />
        <mxCell id="1" parent="0" />
        <mxCell id="vvfs7sWrqaEK6Ch1blQx-27" style="edgeStyle=orthogonalEdgeStyle;rounded=0;orthogonalLoop=1;jettySize=auto;html=1;exitX=0;exitY=0.5;exitDx=0;exitDy=0;entryX=1;entryY=0.5;entryDx=0;entryDy=0;" edge="1" parent="1" source="vvfs7sWrqaEK6Ch1blQx-1" target="vvfs7sWrqaEK6Ch1blQx-3">
          <mxGeometry relative="1" as="geometry" />
        </mxCell>
        <mxCell id="vvfs7sWrqaEK6Ch1blQx-1" value="Telegram" style="rounded=0;whiteSpace=wrap;html=1;fillColor=#e1d5e7;strokeColor=#9673a6;" vertex="1" parent="1">
          <mxGeometry x="360" y="320" width="120" height="40" as="geometry" />
        </mxCell>
        <mxCell id="vvfs7sWrqaEK6Ch1blQx-26" style="edgeStyle=orthogonalEdgeStyle;rounded=0;orthogonalLoop=1;jettySize=auto;html=1;exitX=0.5;exitY=1;exitDx=0;exitDy=0;entryX=0.5;entryY=0;entryDx=0;entryDy=0;" edge="1" parent="1" source="vvfs7sWrqaEK6Ch1blQx-3" target="vvfs7sWrqaEK6Ch1blQx-8">
          <mxGeometry relative="1" as="geometry" />
        </mxCell>
        <mxCell id="vvfs7sWrqaEK6Ch1blQx-28" style="edgeStyle=orthogonalEdgeStyle;rounded=0;orthogonalLoop=1;jettySize=auto;html=1;exitX=0;exitY=0.5;exitDx=0;exitDy=0;entryX=1;entryY=0.5;entryDx=0;entryDy=0;" edge="1" parent="1" source="vvfs7sWrqaEK6Ch1blQx-3" target="vvfs7sWrqaEK6Ch1blQx-6">
          <mxGeometry relative="1" as="geometry" />
        </mxCell>
        <mxCell id="vvfs7sWrqaEK6Ch1blQx-29" style="edgeStyle=orthogonalEdgeStyle;rounded=0;orthogonalLoop=1;jettySize=auto;html=1;exitX=0;exitY=0.5;exitDx=0;exitDy=0;entryX=1;entryY=0.5;entryDx=0;entryDy=0;" edge="1" parent="1" source="vvfs7sWrqaEK6Ch1blQx-3" target="vvfs7sWrqaEK6Ch1blQx-5">
          <mxGeometry relative="1" as="geometry" />
        </mxCell>
        <mxCell id="vvfs7sWrqaEK6Ch1blQx-32" style="edgeStyle=orthogonalEdgeStyle;rounded=0;orthogonalLoop=1;jettySize=auto;html=1;exitX=0.5;exitY=0;exitDx=0;exitDy=0;entryX=0;entryY=0.5;entryDx=0;entryDy=0;strokeColor=#000D14;" edge="1" parent="1" source="vvfs7sWrqaEK6Ch1blQx-3" target="vvfs7sWrqaEK6Ch1blQx-7">
          <mxGeometry relative="1" as="geometry" />
        </mxCell>
        <mxCell id="vvfs7sWrqaEK6Ch1blQx-41" value="Step2" style="edgeLabel;html=1;align=center;verticalAlign=middle;resizable=0;points=[];" vertex="1" connectable="0" parent="vvfs7sWrqaEK6Ch1blQx-32">
          <mxGeometry x="-0.4" y="-6" relative="1" as="geometry">
            <mxPoint x="-6" as="offset" />
          </mxGeometry>
        </mxCell>
        <mxCell id="vvfs7sWrqaEK6Ch1blQx-3" value="BotSynchronisers" style="whiteSpace=wrap;html=1;rounded=0;fillColor=#ffe6cc;strokeColor=#d79b00;" vertex="1" parent="1">
          <mxGeometry x="80" y="320" width="120" height="40" as="geometry" />
        </mxCell>
        <mxCell id="vvfs7sWrqaEK6Ch1blQx-24" style="edgeStyle=orthogonalEdgeStyle;rounded=0;orthogonalLoop=1;jettySize=auto;html=1;exitX=1;exitY=0.5;exitDx=0;exitDy=0;" edge="1" parent="1" source="vvfs7sWrqaEK6Ch1blQx-5" target="vvfs7sWrqaEK6Ch1blQx-3">
          <mxGeometry relative="1" as="geometry" />
        </mxCell>
        <mxCell id="vvfs7sWrqaEK6Ch1blQx-5" value="Weibo" style="rounded=0;whiteSpace=wrap;html=1;fillColor=#e1d5e7;strokeColor=#9673a6;" vertex="1" parent="1">
          <mxGeometry x="-200" y="360" width="120" height="40" as="geometry" />
        </mxCell>
        <mxCell id="vvfs7sWrqaEK6Ch1blQx-25" style="edgeStyle=orthogonalEdgeStyle;rounded=0;orthogonalLoop=1;jettySize=auto;html=1;exitX=1;exitY=0.5;exitDx=0;exitDy=0;entryX=0;entryY=0.5;entryDx=0;entryDy=0;" edge="1" parent="1" source="vvfs7sWrqaEK6Ch1blQx-6" target="vvfs7sWrqaEK6Ch1blQx-3">
          <mxGeometry relative="1" as="geometry">
            <Array as="points">
              <mxPoint y="300" />
              <mxPoint y="340" />
            </Array>
          </mxGeometry>
        </mxCell>
        <mxCell id="vvfs7sWrqaEK6Ch1blQx-6" value="twitter" style="rounded=0;whiteSpace=wrap;html=1;fillColor=#e1d5e7;strokeColor=#9673a6;" vertex="1" parent="1">
          <mxGeometry x="-200" y="280" width="120" height="40" as="geometry" />
        </mxCell>
        <mxCell id="vvfs7sWrqaEK6Ch1blQx-7" value="database" style="rounded=0;whiteSpace=wrap;html=1;fillColor=#dae8fc;strokeColor=#6c8ebf;" vertex="1" parent="1">
          <mxGeometry x="240" y="200" width="80" height="40" as="geometry" />
        </mxCell>
        <mxCell id="vvfs7sWrqaEK6Ch1blQx-34" style="edgeStyle=orthogonalEdgeStyle;rounded=0;orthogonalLoop=1;jettySize=auto;html=1;exitX=1;exitY=0.5;exitDx=0;exitDy=0;strokeColor=#C73500;fillColor=#fa6800;" edge="1" parent="1" source="vvfs7sWrqaEK6Ch1blQx-8" target="vvfs7sWrqaEK6Ch1blQx-7">
          <mxGeometry relative="1" as="geometry" />
        </mxCell>
        <mxCell id="vvfs7sWrqaEK6Ch1blQx-8" value="nagging" style="rounded=0;whiteSpace=wrap;html=1;fillColor=#d5e8d4;strokeColor=#82b366;" vertex="1" parent="1">
          <mxGeometry x="80" y="440" width="120" height="40" as="geometry" />
        </mxCell>
        <mxCell id="vvfs7sWrqaEK6Ch1blQx-9" value="MsTodo" style="rounded=0;whiteSpace=wrap;html=1;fillColor=#dae8fc;strokeColor=#6c8ebf;" vertex="1" parent="1">
          <mxGeometry x="640" y="80" width="120" height="40" as="geometry" />
        </mxCell>
        <mxCell id="vvfs7sWrqaEK6Ch1blQx-15" style="edgeStyle=orthogonalEdgeStyle;rounded=0;orthogonalLoop=1;jettySize=auto;html=1;" edge="1" parent="1" source="vvfs7sWrqaEK6Ch1blQx-10" target="vvfs7sWrqaEK6Ch1blQx-11">
          <mxGeometry relative="1" as="geometry" />
        </mxCell>
        <mxCell id="vvfs7sWrqaEK6Ch1blQx-22" style="edgeStyle=orthogonalEdgeStyle;rounded=0;orthogonalLoop=1;jettySize=auto;html=1;exitX=0.5;exitY=0;exitDx=0;exitDy=0;entryX=0.5;entryY=1;entryDx=0;entryDy=0;" edge="1" parent="1" source="vvfs7sWrqaEK6Ch1blQx-10" target="vvfs7sWrqaEK6Ch1blQx-9">
          <mxGeometry relative="1" as="geometry" />
        </mxCell>
        <mxCell id="vvfs7sWrqaEK6Ch1blQx-33" style="edgeStyle=orthogonalEdgeStyle;rounded=0;orthogonalLoop=1;jettySize=auto;html=1;exitX=0;exitY=0.5;exitDx=0;exitDy=0;entryX=1;entryY=0.5;entryDx=0;entryDy=0;strokeColor=#000D14;" edge="1" parent="1" source="vvfs7sWrqaEK6Ch1blQx-10" target="vvfs7sWrqaEK6Ch1blQx-7">
          <mxGeometry relative="1" as="geometry" />
        </mxCell>
        <mxCell id="vvfs7sWrqaEK6Ch1blQx-10" value="BotAssistant" style="rounded=0;whiteSpace=wrap;html=1;fillColor=#ffe6cc;strokeColor=#d79b00;" vertex="1" parent="1">
          <mxGeometry x="640" y="200" width="120" height="40" as="geometry" />
        </mxCell>
        <mxCell id="vvfs7sWrqaEK6Ch1blQx-16" style="edgeStyle=orthogonalEdgeStyle;rounded=0;orthogonalLoop=1;jettySize=auto;html=1;" edge="1" parent="1" source="vvfs7sWrqaEK6Ch1blQx-11" target="vvfs7sWrqaEK6Ch1blQx-13">
          <mxGeometry relative="1" as="geometry" />
        </mxCell>
        <mxCell id="vvfs7sWrqaEK6Ch1blQx-17" style="edgeStyle=orthogonalEdgeStyle;rounded=0;orthogonalLoop=1;jettySize=auto;html=1;entryX=1;entryY=0.5;entryDx=0;entryDy=0;" edge="1" parent="1" source="vvfs7sWrqaEK6Ch1blQx-11" target="vvfs7sWrqaEK6Ch1blQx-1">
          <mxGeometry relative="1" as="geometry" />
        </mxCell>
        <mxCell id="vvfs7sWrqaEK6Ch1blQx-42" style="edgeStyle=orthogonalEdgeStyle;rounded=0;orthogonalLoop=1;jettySize=auto;html=1;exitX=0.5;exitY=1;exitDx=0;exitDy=0;strokeColor=#000D14;" edge="1" parent="1" source="vvfs7sWrqaEK6Ch1blQx-11" target="vvfs7sWrqaEK6Ch1blQx-12">
          <mxGeometry relative="1" as="geometry" />
        </mxCell>
        <mxCell id="vvfs7sWrqaEK6Ch1blQx-11" value="EveryDayReport" style="rounded=0;whiteSpace=wrap;html=1;fillColor=#fff2cc;strokeColor=#d6b656;" vertex="1" parent="1">
          <mxGeometry x="640" y="320" width="120" height="40" as="geometry" />
        </mxCell>
        <mxCell id="vvfs7sWrqaEK6Ch1blQx-38" style="edgeStyle=orthogonalEdgeStyle;rounded=0;orthogonalLoop=1;jettySize=auto;html=1;exitX=0;exitY=0.5;exitDx=0;exitDy=0;entryX=0.5;entryY=1;entryDx=0;entryDy=0;strokeColor=#C73500;fillColor=#fa6800;" edge="1" parent="1" source="vvfs7sWrqaEK6Ch1blQx-12" target="vvfs7sWrqaEK6Ch1blQx-7">
          <mxGeometry relative="1" as="geometry" />
        </mxCell>
        <mxCell id="vvfs7sWrqaEK6Ch1blQx-39" value="Index" style="edgeLabel;html=1;align=center;verticalAlign=middle;resizable=0;points=[];labelBackgroundColor=none;" vertex="1" connectable="0" parent="vvfs7sWrqaEK6Ch1blQx-38">
          <mxGeometry x="-0.7947" y="6" relative="1" as="geometry">
            <mxPoint x="-37" y="4" as="offset" />
          </mxGeometry>
        </mxCell>
        <mxCell id="vvfs7sWrqaEK6Ch1blQx-12" value="WebFrontEnd" style="rounded=0;whiteSpace=wrap;html=1;fillColor=#d5e8d4;strokeColor=#82b366;" vertex="1" parent="1">
          <mxGeometry x="360" y="440" width="120" height="40" as="geometry" />
        </mxCell>
        <mxCell id="vvfs7sWrqaEK6Ch1blQx-13" value="Notion" style="rounded=0;whiteSpace=wrap;html=1;fillColor=#d5e8d4;strokeColor=#82b366;" vertex="1" parent="1">
          <mxGeometry x="640" y="440" width="120" height="40" as="geometry" />
        </mxCell>
        <mxCell id="vvfs7sWrqaEK6Ch1blQx-40" value="Step1" style="text;html=1;align=center;verticalAlign=middle;resizable=0;points=[];autosize=1;strokeColor=none;labelBackgroundColor=#ffffff;" vertex="1" parent="1">
          <mxGeometry x="230" y="330" width="50" height="20" as="geometry" />
        </mxCell>
      </root>
    </mxGraphModel>
  </diagram>
</mxfile>
